<svg width="130" height="130" viewBox="0 0 130 130" fill="none" xmlns="http://www.w3.org/2000/svg">
<path d="M20.3856 15.2285L64.6648 5.38867L108.944 15.2285C110.141 15.4945 111.211 16.1606 111.978 17.1167C112.745 18.0729 113.163 19.2621 113.163 20.4879V74.3052C113.163 79.6278 111.849 84.8681 109.337 89.5608C106.825 94.2535 103.194 98.2535 98.7647 101.206L64.6648 123.941L30.5649 101.206C26.1368 98.254 22.5058 94.2548 19.9941 89.5631C17.4823 84.8715 16.1675 79.6323 16.1662 74.3106V20.4879C16.1664 19.2621 16.5846 18.0729 17.3517 17.1167C18.1188 16.1606 19.1889 15.4945 20.3856 15.2285Z" fill="#00388E"/>
<path d="M31.5547 34.8877V90.4417M34.3324 34.8877V90.4417M28.777 34.8877V90.4417M45.4431 34.8877V90.4417M78.7755 34.8877V90.4417M70.4424 34.8877V90.4417M75.9978 34.8877V90.4417M100.997 34.8877V90.4417M89.8863 34.8877V90.4417M59.3316 34.8877V90.4417" stroke="white" stroke-width="4.23268"/>
</svg>
